<svg xmlns="http://www.w3.org/2000/svg" width="35" height="35"><path fill-rule="evenodd" d="M5.492 7A.5.5 0 0 0 5 7.508v4a.5.5 0 1 0 1 0v-.793l1.146 1.146a.5.5 0 1 0 .708-.707L6.687 9.988A1.504 1.504 0 0 0 8 8.508c0-.822-.678-1.5-1.5-1.5H5.592a.5.5 0 0 0-.1-.008zm7.004.006a.5.5 0 0 0-.004.002.5.5 0 0 0-.006 0 .5.5 0 0 0-.088.01.5.5 0 0 0-.005.002.5.5 0 0 0-.047.013.5.5 0 0 0-.047.02.5.5 0 0 0-.02.01.5.5 0 0 0-.02.01.5.5 0 0 0-.066.044.5.5 0 0 0-.015.012.5.5 0 0 0-.03.03.5.5 0 0 0-.005.005l-.995.982a.5.5 0 1 0 .704.711l.154-.152V11.5a.5.5 0 1 0 1 0V7.516a.5.5 0 0 0 0-.002.5.5 0 0 0 0-.002.5.5 0 0 0-.002-.047.5.5 0 0 0 0-.004.5.5 0 0 0-.002-.012.5.5 0 0 0-.006-.037.5.5 0 0 0-.01-.045.5.5 0 0 0-.002-.004.5.5 0 0 0-.004-.011.5.5 0 0 0-.011-.032.5.5 0 0 0-.02-.047.5.5 0 0 0-.002-.002.5.5 0 0 0-.023-.04.5.5 0 0 0-.002-.002.5.5 0 0 0-.008-.01.5.5 0 0 0-.023-.032.5.5 0 0 0-.108-.097.5.5 0 0 0-.004-.002.5.5 0 0 0-.039-.024.5.5 0 0 0-.004-.002.5.5 0 0 0-.002 0 .5.5 0 0 0-.043-.019.5.5 0 0 0-.023-.008.5.5 0 0 0-.022-.008.5.5 0 0 0-.001-.002.5.5 0 0 0-.045-.01.5.5 0 0 0-.004 0 .5.5 0 0 0-.047-.007.5.5 0 0 0-.004 0 .5.5 0 0 0-.049-.002zm11.326.002a.5.5 0 0 0-.494.42l-.324 2.004a.5.5 0 0 0 .92.353.667.667 0 0 1 .91.108.672.672 0 0 1-.049.933.666.666 0 0 1-.933-.01.5.5 0 1 0-.696.72c.64.617 1.667.624 2.315.015.647-.61.702-1.634.125-2.31a1.672 1.672 0 0 0-1.104-.577v.002a1.697 1.697 0 0 0-.351.004l.107-.662h1.25a.5.5 0 1 0 0-1h-1.676zm-5.465.006A1.504 1.504 0 0 0 17 8.508a.5.5 0 1 0 1 0 .498.498 0 0 1 .854-.354.497.497 0 0 1-.354.854.5.5 0 0 0-.135.015.5.5 0 0 0-.013.004.5.5 0 0 0-.034.012.5.5 0 0 0-.076.037.5.5 0 0 0-.021.012.5.5 0 0 0-.004.002.5.5 0 0 0-.03.021.5.5 0 0 0-.03.026.5.5 0 0 0-.012.011.5.5 0 0 0-.016.018.5.5 0 0 0-.02.021.5.5 0 0 0-.01.012.5.5 0 0 0-.019.028.5.5 0 0 0-.016.023.5.5 0 0 0-.007.014.5.5 0 0 0-.014.025.5.5 0 0 0-.01.022.5.5 0 0 0-.008.021.5.5 0 0 0-.007.02.5.5 0 0 0-.004.015.5.5 0 0 0-.018.088.5.5 0 0 0-.002.03.5.5 0 0 0-.002.023.5.5 0 0 0 .002.021.5.5 0 0 0 .002.03.5.5 0 0 0 0 .005.5.5 0 0 0 .006.036.5.5 0 0 0 .012.046.5.5 0 0 1 0 .002.5.5 0 0 1 0 .002.5.5 0 0 0 .01.028.5.5 0 0 0 .01.025.5.5 0 0 0 .009.022.5.5 0 0 0 .014.025.5.5 0 0 0 .007.014.5.5 0 0 0 .016.025.5.5 0 0 0 .01.012.5.5 0 0 0 .055.064.5.5 0 0 0 .011.012.5.5 0 0 0 .065.049.5.5 0 0 0 .021.011.5.5 0 0 0 .018.012.5.5 0 0 0 .013.006.5.5 0 0 0 .036.018.5.5 0 0 0 .035.011.5.5 0 0 0 .02.004.5.5 0 0 0 .003.002.5.5 0 0 0 .133.018.498.498 0 0 1 .354.853.498.498 0 0 1-.854-.354.5.5 0 1 0-1 0c0 .606.367 1.156.926 1.388a1.503 1.503 0 0 0 1.96-1.96 1.476 1.476 0 0 0-.279-.427c.114-.126.213-.264.28-.426a1.503 1.503 0 0 0-1.53-2.068zM6 8.008h.5c.286 0 .5.214.5.5 0 .286-.214.5-.5.5H6v-1zM6.492 13a.5.5 0 0 0-.492.508v3a.5.5 0 0 0 .5.5H12v2.5a.5.5 0 1 0 1 0v-2.5h5v2.5a.5.5 0 1 0 1 0v-2.5h5v2.5a.5.5 0 1 0 1 0v-6a.5.5 0 0 0-.508-.508.5.5 0 0 0-.492.508v2.5h-5v-2.5a.5.5 0 0 0-.508-.508.5.5 0 0 0-.492.508v2.5h-5v-2.5a.5.5 0 0 0-.508-.508.5.5 0 0 0-.492.508v2.5H7v-2.5A.5.5 0 0 0 6.492 13zm11.862 7.994a.5.5 0 0 0-.465.367l-.875 3a.5.5 0 0 0 .48.639h1.5v.5a.5.5 0 1 0 1 0v-.893a.5.5 0 0 0 0-.212v-1.813a.5.5 0 1 0-1 0V24h-.834l.688-2.36a.5.5 0 0 0-.494-.646zm-5.868.014c-.822 0-1.5.677-1.5 1.5a.5.5 0 1 0 1 0c0-.286.214-.5.5-.5.286 0 .5.214.5.5 0 .264-.07.413-.203.58-.133.166-.344.334-.594.521-.249.188-.534.395-.775.698-.24.302-.422.715-.422 1.2a.5.5 0 0 0 .5.5h2a.5.5 0 1 0 0-1h-1.324c.016-.021.01-.055.027-.077.133-.167.347-.334.596-.522.25-.187.533-.395.773-.697a1.93 1.93 0 0 0 .422-1.203c0-.823-.678-1.5-1.5-1.5zm12.014 0c-.822 0-1.5.678-1.5 1.5v2a.5.5 0 0 0 .012.115 1.504 1.504 0 0 0 1.488 1.385c.823 0 1.5-.678 1.5-1.5 0-.823-.677-1.5-1.5-1.5a1.47 1.47 0 0 0-.5.092v-.592c0-.286.214-.5.5-.5.286 0 .5.214.5.5a.5.5 0 1 0 1 0c0-.822-.678-1.5-1.5-1.5zm0 3c.282 0 .5.218.5.5 0 .282-.218.5-.5.5a.493.493 0 0 1-.5-.5c0-.282.218-.5.5-.5z" color="#000" font-family="sans-serif" font-weight="400" overflow="visible" style="line-height:normal;text-indent:0;text-align:start;text-decoration-line:none;text-decoration-style:solid;text-decoration-color:#000;text-transform:none;block-progression:tb;white-space:normal;isolation:auto;mix-blend-mode:normal;solid-color:#000;solid-opacity:1"/></svg>