<svg xmlns="http://www.w3.org/2000/svg" viewBox="0 0 96 96"><g data-name="Gear Stick Manual"><path d="M73.75,30.46H36.69V27.62h.39a3.06,3.06,0,0,0,3.06-3.05V21.92l2.64-8.24a10.46,10.46,0,1,0-19.92,0l2.64,8.24v2.65a3.06,3.06,0,0,0,3.06,3.05H29v2.84h-6.7a5.5,5.5,0,0,0-5.5,5.5v54.5a5.51,5.51,0,0,0,5.5,5.5h51.5a5.51,5.51,0,0,0,5.5-5.5V36A5.5,5.5,0,0,0,73.75,30.46Zm-49-17.39a8.45,8.45,0,1,1,16.1,0l-2.46,7.71H27.23Zm2.73,11.5V22.78H38.14v1.79a1.06,1.06,0,0,1-1.06,1.05H28.56A1.06,1.06,0,0,1,27.5,24.57ZM31,27.62h3.74V47.46H31Zm11.33,24h4.47V55.7H42.28a1,1,0,0,0-1,1v8a1,1,0,0,0,1,1h4.47v4.12H42.28a1,1,0,0,0-1,1v8a1,1,0,0,0,1,1h4.47V84h-23V37.46H29v10H27.67a1,1,0,1,0,0,2h9.92a1,1,0,0,0,0-2h-.9v-10H46.75v4.12H42.28a1,1,0,0,0-1,1v8A1,1,0,0,0,42.28,51.58ZM18.75,36a3.5,3.5,0,0,1,3.5-3.5H29v3h-6.2a1,1,0,0,0-1,1V85a1,1,0,0,0,1,1h25a1,1,0,0,0,1-1V78.84a1,1,0,0,0-1-1H43.28v-6h4.47a1,1,0,0,0,1-1V64.71a1,1,0,0,0-1-1H43.28v-6h4.47a1,1,0,0,0,1-1V50.58a1,1,0,0,0-1-1H43.28v-6h4.47a1,1,0,0,0,1-1V36.46a1,1,0,0,0-1-1H36.69v-3H73.75a3.5,3.5,0,0,1,3.5,3.5v49.5a3.5,3.5,0,0,1-3.5,3.5H22.25a3.5,3.5,0,0,1-3.5-3.5Zm58.5,54.5a3.5,3.5,0,0,1-3.5,3.5H22.25a3.5,3.5,0,0,1-3.5-3.5V89.7A5.45,5.45,0,0,0,22.25,91h51.5a5.45,5.45,0,0,0,3.5-1.26Z"/><path d="M52.25,86h21a1,1,0,0,0,1-1V36.46a1,1,0,0,0-1-1h-21a1,1,0,0,0-1,1V85A1,1,0,0,0,52.25,86Zm20-48.5V84h-19V37.46Z"/><path d="M56.25,80a1,1,0,0,0,1,1h11a1,1,0,0,0,1-1V41.46a1,1,0,0,0-1-1h-11a1,1,0,0,0-1,1Zm11-13h-9V54.41h9Zm-9,12V69h9V79Zm0-36.5h9v9.95h-9Z"/></g></svg>