<svg xmlns="http://www.w3.org/2000/svg" viewBox="0 0 1024 1024"><path d="M770.47 535.15c-1.93 0-3.84.07-5.73.22-.57.05-1.14.1-1.7.16-.44.04-.87.09-1.29.14l-.74.09c-.44.06-.88.12-1.32.19-.46.07-.92.14-1.38.22-.98.16-1.96.35-2.93.56-1.11.23-2.2.49-3.29.77h-.01c-.91.24-1.82.5-2.72.77-.54.16-1.08.33-1.61.51-.48.15-.95.31-1.42.48l-1.41.51c-.47.18-.93.36-1.39.54-.93.37-1.84.76-2.75 1.16-.8.36-1.6.74-2.39 1.13-.32.15-.63.3-.94.47-.67.34-1.33.69-1.98 1.05-.43.24-.86.48-1.29.73a59.327 59.327 0 0 0-3.77 2.33c-.4.26-.8.53-1.2.8-.02.02-.04.03-.06.05-.39.27-.78.54-1.16.82-.45.32-.9.65-1.34.99-.73.55-1.45 1.12-2.16 1.7-.38.31-.76.62-1.13.94-.35.29-.69.59-1.03.89-.41.36-.81.72-1.2 1.09-.35.32-.69.65-1.04.98-.71.67-1.4 1.37-2.07 2.07-.3.31-.6.63-.89.94-.42.46-.84.92-1.25 1.38-.27.32-.55.63-.82.95-.32.38-.63.75-.94 1.13a70.852 70.852 0 0 0-4.36 5.93c-.84 1.26-1.64 2.56-2.4 3.88-.28.5-.56.99-.83 1.49s-.54 1.01-.8 1.52c-.16.31-.32.62-.47.93a82.261 82.261 0 0 0-1.8 3.9c-.19.46-.38.93-.56 1.39-.19.47-.37.93-.54 1.4-.13.33-.25.66-.36.99-.12.32-.24.65-.35.99a71.326 71.326 0 0 0-2.42 8.89c-.12.59-.24 1.18-.34 1.78-.11.59-.21 1.19-.3 1.8-.09.57-.17 1.14-.24 1.71-.05.4-.1.79-.14 1.19-.08.69-.15 1.39-.2 2.09-.04.36-.07.72-.09 1.08l-.03.54c-.03.43-.05.87-.07 1.31-.03.52-.04 1.04-.05 1.57a72.016 72.016 0 0 0 .72 11.92c.16 1.1.34 2.2.55 3.29.07.41.15.81.24 1.22.01.06.02.13.04.19.1.47.2.94.31 1.41.1.47.22.93.33 1.39l.06.21a70.815 70.815 0 0 0 2.52 7.92c.22.59.46 1.18.7 1.77a71.652 71.652 0 0 0 2.69 5.79c12.12 23.29 36.47 39.35 64.54 39.35 28.19 0 52.62-16.19 64.7-39.63.15-.29.3-.6.44-.9.3-.6.59-1.2.86-1.8.19-.39.37-.79.54-1.19a70.642 70.642 0 0 0 2.86-7.59 73.014 73.014 0 0 0 1.45-5.29c.13-.57.26-1.15.38-1.72.03-.17.06-.33.09-.49.11-.51.21-1.03.29-1.54l.06-.29c.11-.67.22-1.35.32-2.03.49-3.4.74-6.88.74-10.41 0-40.16-32.56-72.72-72.73-72.72zM790 618.01c-3.67 7.05-11.03 11.86-19.53 11.86-8.49 0-15.86-4.81-19.52-11.86a21.874 21.874 0 0 1-2.48-10.14c0-12.15 9.85-22 22-22s22 9.85 22 22c0 3.66-.89 7.11-2.47 10.14z"/><path d="m932.95 548.85-12.37-100.41c-.42-3.43-1.37-6.75-2.83-9.86-1.45-3.13-3.39-6-5.76-8.52l-2.22-2.37h-.33l-58.71-62.78c-17.67-18.89-42.64-29.72-68.46-29.72l-280.41-.94c-19.45 0-38.6 5.2-55.38 15.04l-133.05 78.02.18.3-139.67 9.87c-22.8 1.61-43.87 11.78-59.34 28.65-9.92 10.83-17.06 24.05-20.65 38.23a89.307 89.307 0 0 0-2.72 20.82l-.63 52.99c-.15 12.43 4.58 24.14 13.31 32.98 8.74 8.84 20.39 13.71 32.82 13.71H177a86.652 86.652 0 0 1-1.78-15c-.03-.94-.05-1.89-.05-2.84 0-48.37 39.35-87.72 87.72-87.72s87.72 39.35 87.72 87.72c0 .96-.02 1.92-.05 2.88-.08 2.5-.27 5.01-.57 7.5-.07.69-.16 1.38-.26 2.07-.26 1.82-.57 3.63-.95 5.42l335.8.79c-.37-1.76-.68-3.54-.93-5.32-.11-.73-.2-1.46-.28-2.19-.31-2.48-.5-4.99-.57-7.5-.04-.93-.05-1.87-.05-2.8 0-39.64 26.43-73.23 62.6-84.05 4.89-1.47 9.97-2.52 15.18-3.1 3.26-.38 6.58-.57 9.94-.57 47.61 0 86.49 38.12 87.7 85.45v.01a87.97 87.97 0 0 1-.15 7.89 87.62 87.62 0 0 1-.71 6.92l-.18 1.2 41.17-12.66.23-.07c23.25-7.95 37.72-33.2 34.42-60.04zm-790.3 8.03H111.1v-15h31.55v15zm34.78-66.12-4.68 6.55a30.787 30.787 0 0 1-25.05 12.89h-33.83c2.8-11.07 8.32-21.09 15.82-29.28h42.68c5.06 0 8 5.72 5.06 9.84zm367.14-14.13h-41.34v-15h41.34v15zm21.56-49.38-192.6-.4 88.13-51.68c12.18-7.14 26.08-10.92 40.15-10.92l66.55.22c-.51 18.99-1.3 40.33-2.23 62.78zm168.92 49.38h-41.2v-15h41.2v15zm-138.89-49.32c.92-22.41 1.7-43.73 2.21-62.74l109.95.37 41.07 62.68-153.23-.31zm189.15.38-41.04-62.63 37.95.13c17.59 0 34.58 7.37 46.59 20.22l39.54 42.28h-83.04zM890.3 513c-5.03-.2-9.6-2.95-12.14-7.3l-7.35-12.57c-3.36-5.74.78-12.96 7.43-12.96h27.47l4.15 33.62-19.56-.79z"/><path d="M262.89 534.3c-40.16 0-72.72 32.56-72.72 72.72a72.783 72.783 0 0 0 1.29 13.63c.07.41.15.81.24 1.22.01.06.02.13.04.19.1.47.2.94.31 1.41.1.47.22.93.33 1.39l.06.21c.14.55.28 1.1.44 1.65.52 1.88 1.13 3.73 1.8 5.54.15.41.3.82.46 1.22.59 1.5 1.22 2.98 1.91 4.43.18.4.37.8.57 1.2.24.48.48.96.73 1.44 12.12 23.29 36.47 39.19 64.54 39.19 28.19 0 52.62-16.03 64.7-39.47.15-.29.3-.59.44-.9.21-.42.42-.85.62-1.28.18-.37.35-.74.52-1.11.06-.13.12-.26.17-.39.17-.37.33-.73.48-1.1.41-.96.8-1.92 1.17-2.9.14-.37.27-.74.4-1.11.35-.97.68-1.95.99-2.95.18-.59.35-1.18.52-1.78.17-.63.34-1.26.5-1.89.26-1.04.5-2.09.72-3.15.01-.03.02-.07.02-.1.08-.38.16-.76.22-1.14.08-.4.16-.81.22-1.21.11-.63.21-1.26.3-1.9.48-3.38.73-6.83.73-10.34 0-40.16-32.55-72.72-72.72-72.72zm19.53 82.87c-3.67 7.04-11.03 11.85-19.53 11.85-8.49 0-15.86-4.81-19.52-11.85a21.823 21.823 0 0 1-2.48-10.15c0-12.15 9.85-22 22-22s22 9.85 22 22c0 3.66-.89 7.11-2.47 10.15z"/></svg>